<mxfile host="app.diagrams.net" agent="Mozilla/5.0 (Windows NT 10.0; Win64; x64) AppleWebKit/537.36 (KHTML, like Gecko) Chrome/134.0.0.0 Safari/537.36 OPR/119.0.0.0" version="28.0.6">
  <diagram name="Page-1" id="GLmQVLqmcthkx8ByNzfe">
    <mxGraphModel dx="2232" dy="790" grid="1" gridSize="10" guides="1" tooltips="1" connect="1" arrows="1" fold="1" page="1" pageScale="1" pageWidth="850" pageHeight="1100" math="0" shadow="0">
      <root>
        <mxCell id="0" />
        <mxCell id="1" parent="0" />
        <mxCell id="3tPbDVsDQ4fWRnADEJve-1" value="User" style="shape=umlActor;verticalLabelPosition=bottom;verticalAlign=top;html=1;outlineConnect=0;" parent="1" vertex="1">
          <mxGeometry x="-150" y="470" width="30" height="60" as="geometry" />
        </mxCell>
        <mxCell id="3tPbDVsDQ4fWRnADEJve-10" style="edgeStyle=orthogonalEdgeStyle;rounded=0;orthogonalLoop=1;jettySize=auto;html=1;entryX=0;entryY=0.5;entryDx=0;entryDy=0;strokeColor=none;" parent="1" source="3tPbDVsDQ4fWRnADEJve-5" target="3tPbDVsDQ4fWRnADEJve-9" edge="1">
          <mxGeometry relative="1" as="geometry" />
        </mxCell>
        <mxCell id="3tPbDVsDQ4fWRnADEJve-11" style="edgeStyle=orthogonalEdgeStyle;rounded=0;orthogonalLoop=1;jettySize=auto;html=1;endArrow=none;endFill=0;" parent="1" source="3tPbDVsDQ4fWRnADEJve-5" target="3tPbDVsDQ4fWRnADEJve-9" edge="1">
          <mxGeometry relative="1" as="geometry" />
        </mxCell>
        <mxCell id="3tPbDVsDQ4fWRnADEJve-5" value="" style="shape=image;verticalLabelPosition=bottom;verticalAlign=top;imageAspect=0;image=https://cdn-icons-png.freepik.com/512/4083/4083360.png;" parent="1" vertex="1">
          <mxGeometry x="50" y="450" width="90" height="100" as="geometry" />
        </mxCell>
        <mxCell id="3tPbDVsDQ4fWRnADEJve-40" style="edgeStyle=orthogonalEdgeStyle;rounded=0;orthogonalLoop=1;jettySize=auto;html=1;" parent="1" source="3tPbDVsDQ4fWRnADEJve-9" target="3tPbDVsDQ4fWRnADEJve-38" edge="1">
          <mxGeometry relative="1" as="geometry" />
        </mxCell>
        <mxCell id="3tPbDVsDQ4fWRnADEJve-9" value="API GATEWAY" style="rounded=1;whiteSpace=wrap;html=1;" parent="1" vertex="1">
          <mxGeometry x="220" y="470" width="120" height="60" as="geometry" />
        </mxCell>
        <mxCell id="3tPbDVsDQ4fWRnADEJve-21" value="Rest API" style="edgeLabel;html=1;align=center;verticalAlign=middle;resizable=0;points=[];" parent="1" vertex="1" connectable="0">
          <mxGeometry x="440" y="540" as="geometry">
            <mxPoint x="-41" y="58" as="offset" />
          </mxGeometry>
        </mxCell>
        <mxCell id="3tPbDVsDQ4fWRnADEJve-22" value="Rest API" style="edgeLabel;html=1;align=center;verticalAlign=middle;resizable=0;points=[];" parent="1" vertex="1" connectable="0">
          <mxGeometry x="440" y="670" as="geometry">
            <mxPoint x="-20" y="14" as="offset" />
          </mxGeometry>
        </mxCell>
        <mxCell id="3tPbDVsDQ4fWRnADEJve-23" value="Rest API" style="edgeLabel;html=1;align=center;verticalAlign=middle;resizable=0;points=[];" parent="1" vertex="1" connectable="0">
          <mxGeometry x="180" y="500" as="geometry" />
        </mxCell>
        <mxCell id="3tPbDVsDQ4fWRnADEJve-34" style="edgeStyle=orthogonalEdgeStyle;rounded=0;orthogonalLoop=1;jettySize=auto;html=1;startArrow=none;startFill=0;" parent="1" source="3tPbDVsDQ4fWRnADEJve-24" target="3tPbDVsDQ4fWRnADEJve-42" edge="1">
          <mxGeometry relative="1" as="geometry" />
        </mxCell>
        <mxCell id="3tPbDVsDQ4fWRnADEJve-24" value="Authentication&lt;div&gt;Service&lt;/div&gt;" style="strokeWidth=2;html=1;shape=mxgraph.flowchart.database;whiteSpace=wrap;" parent="1" vertex="1">
          <mxGeometry x="425" y="455" width="85" height="90" as="geometry" />
        </mxCell>
        <mxCell id="56AoGTmWXmEjtMYsG8OI-12" style="edgeStyle=orthogonalEdgeStyle;rounded=0;orthogonalLoop=1;jettySize=auto;html=1;startArrow=none;startFill=0;" edge="1" parent="1" source="3tPbDVsDQ4fWRnADEJve-25" target="56AoGTmWXmEjtMYsG8OI-11">
          <mxGeometry relative="1" as="geometry" />
        </mxCell>
        <mxCell id="3tPbDVsDQ4fWRnADEJve-25" value="Payment Service" style="strokeWidth=2;html=1;shape=mxgraph.flowchart.database;whiteSpace=wrap;" parent="1" vertex="1">
          <mxGeometry x="425" y="570" width="85" height="90" as="geometry" />
        </mxCell>
        <mxCell id="3tPbDVsDQ4fWRnADEJve-37" style="edgeStyle=orthogonalEdgeStyle;rounded=0;orthogonalLoop=1;jettySize=auto;html=1;startArrow=none;startFill=0;" parent="1" source="3tPbDVsDQ4fWRnADEJve-26" target="56AoGTmWXmEjtMYsG8OI-19" edge="1">
          <mxGeometry relative="1" as="geometry" />
        </mxCell>
        <mxCell id="3tPbDVsDQ4fWRnADEJve-26" value="Notification Engine" style="strokeWidth=2;html=1;shape=mxgraph.flowchart.database;whiteSpace=wrap;" parent="1" vertex="1">
          <mxGeometry x="425" y="690" width="85" height="90" as="geometry" />
        </mxCell>
        <mxCell id="3tPbDVsDQ4fWRnADEJve-27" value="" style="endArrow=none;html=1;rounded=0;" parent="1" source="3tPbDVsDQ4fWRnADEJve-38" target="3tPbDVsDQ4fWRnADEJve-25" edge="1">
          <mxGeometry width="50" height="50" relative="1" as="geometry">
            <mxPoint x="400" y="730" as="sourcePoint" />
            <mxPoint x="450" y="680" as="targetPoint" />
          </mxGeometry>
        </mxCell>
        <mxCell id="3tPbDVsDQ4fWRnADEJve-28" value="" style="endArrow=none;html=1;rounded=0;" parent="1" source="3tPbDVsDQ4fWRnADEJve-38" target="3tPbDVsDQ4fWRnADEJve-26" edge="1">
          <mxGeometry width="50" height="50" relative="1" as="geometry">
            <mxPoint x="380" y="580" as="sourcePoint" />
            <mxPoint x="483" y="640" as="targetPoint" />
          </mxGeometry>
        </mxCell>
        <mxCell id="3tPbDVsDQ4fWRnADEJve-29" value="Rest API" style="edgeLabel;html=1;align=center;verticalAlign=middle;resizable=0;points=[];" parent="1" vertex="1" connectable="0">
          <mxGeometry x="420" y="500" as="geometry">
            <mxPoint x="-20" y="14" as="offset" />
          </mxGeometry>
        </mxCell>
        <mxCell id="3tPbDVsDQ4fWRnADEJve-31" value="AuthDB" style="shape=datastore;whiteSpace=wrap;html=1;" parent="1" vertex="1">
          <mxGeometry x="900" y="455" width="80" height="90" as="geometry" />
        </mxCell>
        <mxCell id="3tPbDVsDQ4fWRnADEJve-32" value="PaymentDB" style="shape=datastore;whiteSpace=wrap;html=1;" parent="1" vertex="1">
          <mxGeometry x="900" y="570" width="80" height="90" as="geometry" />
        </mxCell>
        <mxCell id="3tPbDVsDQ4fWRnADEJve-38" value="Load Balancer" style="rounded=1;whiteSpace=wrap;html=1;" parent="1" vertex="1">
          <mxGeometry x="220" y="570" width="120" height="60" as="geometry" />
        </mxCell>
        <mxCell id="3tPbDVsDQ4fWRnADEJve-39" value="" style="endArrow=none;html=1;rounded=0;" parent="1" source="3tPbDVsDQ4fWRnADEJve-38" target="3tPbDVsDQ4fWRnADEJve-24" edge="1">
          <mxGeometry width="50" height="50" relative="1" as="geometry">
            <mxPoint x="410" y="560" as="sourcePoint" />
            <mxPoint x="475" y="550" as="targetPoint" />
          </mxGeometry>
        </mxCell>
        <mxCell id="3tPbDVsDQ4fWRnADEJve-42" value="Redis Cache" style="rounded=0;whiteSpace=wrap;html=1;" parent="1" vertex="1">
          <mxGeometry x="570" y="470" width="120" height="60" as="geometry" />
        </mxCell>
        <mxCell id="56AoGTmWXmEjtMYsG8OI-1" style="edgeStyle=orthogonalEdgeStyle;rounded=0;orthogonalLoop=1;jettySize=auto;html=1;" edge="1" parent="1" source="3tPbDVsDQ4fWRnADEJve-44" target="3tPbDVsDQ4fWRnADEJve-42">
          <mxGeometry relative="1" as="geometry" />
        </mxCell>
        <mxCell id="56AoGTmWXmEjtMYsG8OI-2" style="edgeStyle=orthogonalEdgeStyle;rounded=0;orthogonalLoop=1;jettySize=auto;html=1;startArrow=classic;startFill=1;" edge="1" parent="1" source="3tPbDVsDQ4fWRnADEJve-44" target="3tPbDVsDQ4fWRnADEJve-31">
          <mxGeometry relative="1" as="geometry" />
        </mxCell>
        <mxCell id="3tPbDVsDQ4fWRnADEJve-44" value="Login Session / Token Cache" style="rounded=0;whiteSpace=wrap;html=1;" parent="1" vertex="1">
          <mxGeometry x="720" y="470" width="120" height="60" as="geometry" />
        </mxCell>
        <mxCell id="56AoGTmWXmEjtMYsG8OI-3" value="User Checking Approval / Reject" style="rounded=0;whiteSpace=wrap;html=1;" vertex="1" parent="1">
          <mxGeometry x="740" y="350" width="120" height="60" as="geometry" />
        </mxCell>
        <mxCell id="56AoGTmWXmEjtMYsG8OI-5" value="SLIK / Dukcapil / DTTOT" style="whiteSpace=wrap;html=1;" vertex="1" parent="1">
          <mxGeometry x="560" y="350" width="120" height="60" as="geometry" />
        </mxCell>
        <mxCell id="56AoGTmWXmEjtMYsG8OI-7" value="" style="endArrow=none;html=1;rounded=0;exitX=0.5;exitY=0;exitDx=0;exitDy=0;exitPerimeter=0;" edge="1" parent="1" source="3tPbDVsDQ4fWRnADEJve-24" target="56AoGTmWXmEjtMYsG8OI-5">
          <mxGeometry width="50" height="50" relative="1" as="geometry">
            <mxPoint x="470" y="430" as="sourcePoint" />
            <mxPoint x="520" y="380" as="targetPoint" />
          </mxGeometry>
        </mxCell>
        <mxCell id="56AoGTmWXmEjtMYsG8OI-8" value="" style="endArrow=none;html=1;rounded=0;" edge="1" parent="1" source="56AoGTmWXmEjtMYsG8OI-3" target="56AoGTmWXmEjtMYsG8OI-5">
          <mxGeometry width="50" height="50" relative="1" as="geometry">
            <mxPoint x="630" y="610" as="sourcePoint" />
            <mxPoint x="680" y="560" as="targetPoint" />
            <Array as="points" />
          </mxGeometry>
        </mxCell>
        <mxCell id="56AoGTmWXmEjtMYsG8OI-16" style="edgeStyle=orthogonalEdgeStyle;rounded=0;orthogonalLoop=1;jettySize=auto;html=1;entryX=0;entryY=0.5;entryDx=0;entryDy=0;" edge="1" parent="1" source="56AoGTmWXmEjtMYsG8OI-11" target="56AoGTmWXmEjtMYsG8OI-14">
          <mxGeometry relative="1" as="geometry" />
        </mxCell>
        <mxCell id="56AoGTmWXmEjtMYsG8OI-11" value="Rabbit MQ" style="rounded=0;whiteSpace=wrap;html=1;" vertex="1" parent="1">
          <mxGeometry x="570" y="585" width="120" height="60" as="geometry" />
        </mxCell>
        <mxCell id="56AoGTmWXmEjtMYsG8OI-17" style="edgeStyle=orthogonalEdgeStyle;rounded=0;orthogonalLoop=1;jettySize=auto;html=1;" edge="1" parent="1" source="56AoGTmWXmEjtMYsG8OI-14" target="3tPbDVsDQ4fWRnADEJve-44">
          <mxGeometry relative="1" as="geometry" />
        </mxCell>
        <mxCell id="56AoGTmWXmEjtMYsG8OI-18" style="edgeStyle=orthogonalEdgeStyle;rounded=0;orthogonalLoop=1;jettySize=auto;html=1;" edge="1" parent="1" source="56AoGTmWXmEjtMYsG8OI-14" target="3tPbDVsDQ4fWRnADEJve-32">
          <mxGeometry relative="1" as="geometry" />
        </mxCell>
        <mxCell id="56AoGTmWXmEjtMYsG8OI-14" value="Async Loan Processing" style="rounded=0;whiteSpace=wrap;html=1;" vertex="1" parent="1">
          <mxGeometry x="720" y="585" width="120" height="60" as="geometry" />
        </mxCell>
        <mxCell id="56AoGTmWXmEjtMYsG8OI-30" style="edgeStyle=orthogonalEdgeStyle;rounded=0;orthogonalLoop=1;jettySize=auto;html=1;entryX=0.5;entryY=1;entryDx=0;entryDy=0;startArrow=classic;startFill=1;" edge="1" parent="1" source="56AoGTmWXmEjtMYsG8OI-19" target="56AoGTmWXmEjtMYsG8OI-11">
          <mxGeometry relative="1" as="geometry" />
        </mxCell>
        <mxCell id="56AoGTmWXmEjtMYsG8OI-19" value="Notification email / DB" style="rounded=0;whiteSpace=wrap;html=1;" vertex="1" parent="1">
          <mxGeometry x="570" y="705" width="120" height="60" as="geometry" />
        </mxCell>
        <mxCell id="56AoGTmWXmEjtMYsG8OI-22" value="Nasabah" style="text;html=1;align=center;verticalAlign=middle;resizable=0;points=[];autosize=1;strokeColor=none;fillColor=none;" vertex="1" parent="1">
          <mxGeometry x="60" y="550" width="70" height="30" as="geometry" />
        </mxCell>
        <mxCell id="56AoGTmWXmEjtMYsG8OI-25" style="edgeStyle=orthogonalEdgeStyle;rounded=0;orthogonalLoop=1;jettySize=auto;html=1;startArrow=classic;startFill=1;" edge="1" parent="1" source="56AoGTmWXmEjtMYsG8OI-23" target="56AoGTmWXmEjtMYsG8OI-3">
          <mxGeometry relative="1" as="geometry" />
        </mxCell>
        <mxCell id="56AoGTmWXmEjtMYsG8OI-23" value="" style="shape=image;verticalLabelPosition=bottom;verticalAlign=top;imageAspect=0;image=https://cdn-icons-png.flaticon.com/512/3474/3474360.png;" vertex="1" parent="1">
          <mxGeometry x="754" y="190" width="92" height="100" as="geometry" />
        </mxCell>
        <mxCell id="56AoGTmWXmEjtMYsG8OI-24" value="Back Office" style="text;html=1;align=center;verticalAlign=middle;resizable=0;points=[];autosize=1;strokeColor=none;fillColor=none;" vertex="1" parent="1">
          <mxGeometry x="800" y="300" width="80" height="30" as="geometry" />
        </mxCell>
        <mxCell id="56AoGTmWXmEjtMYsG8OI-27" value="" style="endArrow=none;html=1;rounded=0;exitX=1;exitY=0.5;exitDx=0;exitDy=0;exitPerimeter=0;" edge="1" parent="1" source="3tPbDVsDQ4fWRnADEJve-25" target="56AoGTmWXmEjtMYsG8OI-3">
          <mxGeometry width="50" height="50" relative="1" as="geometry">
            <mxPoint x="630" y="530" as="sourcePoint" />
            <mxPoint x="680" y="480" as="targetPoint" />
            <Array as="points">
              <mxPoint x="540" y="470" />
            </Array>
          </mxGeometry>
        </mxCell>
        <mxCell id="56AoGTmWXmEjtMYsG8OI-32" value="Logging / KAFKA" style="rounded=0;whiteSpace=wrap;html=1;" vertex="1" parent="1">
          <mxGeometry x="220" y="830" width="760" height="35" as="geometry" />
        </mxCell>
        <mxCell id="56AoGTmWXmEjtMYsG8OI-33" value="Rest API" style="edgeLabel;html=1;align=center;verticalAlign=middle;resizable=0;points=[];" vertex="1" connectable="0" parent="1">
          <mxGeometry x="750" y="410" as="geometry">
            <mxPoint x="-20" y="14" as="offset" />
          </mxGeometry>
        </mxCell>
      </root>
    </mxGraphModel>
  </diagram>
</mxfile>
